<svg width="36" height="36" viewBox="0 0 36 36" fill="none" xmlns="http://www.w3.org/2000/svg">
<g clip-path="url(#clip0_2_189)">
<circle cx="18" cy="18" r="18" fill="#F5F6FA"/>
<path d="M14.2131 24V22.7273L18.1506 18.6477C18.571 18.2045 18.9176 17.8163 19.1903 17.483C19.4669 17.1458 19.6733 16.8258 19.8097 16.5227C19.946 16.2197 20.0142 15.8977 20.0142 15.5568C20.0142 15.1705 19.9233 14.8371 19.7415 14.5568C19.5597 14.2727 19.3116 14.0549 18.9972 13.9034C18.6828 13.7481 18.3286 13.6705 17.9347 13.6705C17.518 13.6705 17.1544 13.7557 16.8438 13.9261C16.5331 14.0966 16.2945 14.3371 16.1278 14.6477C15.9612 14.9583 15.8778 15.322 15.8778 15.7386H14.2017C14.2017 15.0303 14.3646 14.411 14.6903 13.8807C15.0161 13.3504 15.4631 12.9394 16.0312 12.6477C16.5994 12.3523 17.2453 12.2045 17.9688 12.2045C18.6998 12.2045 19.3438 12.3504 19.9006 12.642C20.4612 12.9299 20.8987 13.3239 21.2131 13.8239C21.5275 14.3201 21.6847 14.8807 21.6847 15.5057C21.6847 15.9375 21.6032 16.3598 21.4403 16.7727C21.2813 17.1856 21.0028 17.6458 20.6051 18.1534C20.2074 18.6572 19.6544 19.2689 18.946 19.9886L16.6335 22.4091V22.4943H21.8722V24H14.2131Z" fill="#5A607F"/>
</g>
<defs>
<clipPath id="clip0_2_189">
<rect width="36" height="36" fill="white"/>
</clipPath>
</defs>
</svg>
