<svg width="36" height="36" viewBox="0 0 36 36" fill="none" xmlns="http://www.w3.org/2000/svg">
<g clip-path="url(#clip0_2_193)">
<circle cx="18" cy="18" r="18" fill="#F5F6FA"/>
<path d="M18.0142 24.1591C17.2339 24.1591 16.5369 24.0246 15.9233 23.7557C15.3134 23.4867 14.8305 23.1136 14.4744 22.6364C14.1222 22.1553 13.9328 21.5985 13.9062 20.9659H15.6903C15.7131 21.3106 15.8286 21.6098 16.0369 21.8636C16.2491 22.1136 16.5256 22.3068 16.8665 22.4432C17.2074 22.5795 17.5862 22.6477 18.0028 22.6477C18.4612 22.6477 18.8665 22.5682 19.2188 22.4091C19.5748 22.25 19.8532 22.0284 20.054 21.7443C20.2547 21.4564 20.3551 21.125 20.3551 20.75C20.3551 20.3598 20.2547 20.017 20.054 19.7216C19.857 19.4223 19.5672 19.1875 19.1847 19.017C18.8059 18.8466 18.3475 18.7614 17.8097 18.7614H16.8267V17.3295H17.8097C18.2415 17.3295 18.6203 17.2519 18.946 17.0966C19.2756 16.9413 19.5331 16.7254 19.7188 16.4489C19.9044 16.1686 19.9972 15.8409 19.9972 15.4659C19.9972 15.1061 19.9157 14.7936 19.7528 14.5284C19.5938 14.2595 19.3665 14.0492 19.071 13.8977C18.7794 13.7462 18.4347 13.6705 18.0369 13.6705C17.6581 13.6705 17.304 13.7405 16.9744 13.8807C16.6487 14.017 16.3835 14.214 16.179 14.4716C15.9744 14.7254 15.8646 15.0303 15.8494 15.3864H14.1506C14.1695 14.7576 14.3551 14.2045 14.7074 13.7273C15.0634 13.25 15.5331 12.8769 16.1165 12.608C16.6998 12.339 17.3475 12.2045 18.0597 12.2045C18.8059 12.2045 19.4498 12.3504 19.9915 12.642C20.5369 12.9299 20.9574 13.3144 21.2528 13.7955C21.5521 14.2765 21.6998 14.803 21.696 15.375C21.6998 16.0265 21.518 16.5795 21.1506 17.0341C20.7869 17.4886 20.3021 17.7936 19.696 17.9489V18.0398C20.4688 18.1572 21.0672 18.464 21.4915 18.9602C21.9195 19.4564 22.1316 20.072 22.1278 20.8068C22.1316 21.447 21.9536 22.0208 21.5938 22.5284C21.2377 23.036 20.7509 23.4356 20.1335 23.7273C19.5161 24.0152 18.8097 24.1591 18.0142 24.1591Z" fill="#5A607F"/>
</g>
<defs>
<clipPath id="clip0_2_193">
<rect width="36" height="36" fill="white"/>
</clipPath>
</defs>
</svg>
